<?xml version="1.0" standalone="no"?>
<!DOCTYPE svg PUBLIC "-//W3C//DTD SVG 20010904//EN"
 "http://www.w3.org/TR/2001/REC-SVG-20010904/DTD/svg10.dtd">
<svg version="1.0" xmlns="http://www.w3.org/2000/svg"
 width="200.000000pt" height="200.000000pt" viewBox="0 0 200.000000 200.000000"
 preserveAspectRatio="xMidYMid meet">
<metadata>
Created by potrace 1.11, written by Peter Selinger 2001-2013
</metadata>
<g transform="translate(0.000000,200.000000) scale(0.100000,-0.100000)"
fill="#000000" stroke="none">
<path d="M170 1556 l0 -274 160 -163 160 -162 0 -271 0 -271 157 -157 c86 -87
159 -155 162 -152 3 3 6 123 6 267 l0 261 267 0 267 0 1 270 c0 148 3 272 5
275 3 2 122 4 265 4 143 0 260 3 260 6 0 3 -71 77 -158 164 l-157 157 -270 0
-270 0 -160 160 -160 160 -267 0 -268 0 0 -274z m851 -53 c0 -12 0 -495 0
-520 l-1 -23 -265 0 -265 0 0 275 0 275 265 0 c146 0 265 -3 266 -7z"/>
</g>
</svg>
